<svg fill="#019DDA" id="Layer_1" data-name="Layer 1" xmlns="http://www.w3.org/2000/svg" viewBox="0 0 549.09 548"><title>globo</title><path d="M380.82,34.69h39.73c2.93.36,5.86.79,8.81,1.07a262.52,262.52,0,0,1,94.06,27.41Q592.38,98,633.6,163.59a274.34,274.34,0,0,1,34.08,209.16q-21.46,86.82-89.36,145c-35.56,30.44-76.43,50.28-122.26,59.86a351.24,351.24,0,0,1-35.51,5.07H380.82a14.13,14.13,0,0,0-1.67-.34,247.55,247.55,0,0,1-40.52-6.24Q220.16,547,160.18,440.78c-28.67-50.86-38.54-105.95-32.2-163.84a264.73,264.73,0,0,1,29.38-95.26,273.9,273.9,0,0,1,88.76-99.77A270.8,270.8,0,0,1,356.75,37.67C364.74,36.36,372.81,35.8,380.82,34.69ZM618.23,262.2c.42-8.44-.33-16.29-.64-24.16-.49-12.3-1.22-24.6-2.77-36.82C613.4,190,608,184.08,596.94,181.48c-9-2.13-18.3-2.47-27.48-3.28-14.75-1.32-29.55-2.19-44.34-3.08-22-1.32-44-2.17-66-2.33-42.11-.31-84.22-.87-126.33.35-12.88.38-25.78.34-38.65,1-20.61,1-41.22,2-61.76,4-9.41.9-18.91,1.2-28.16,3.34-10.66,2.47-16.37,8.67-17.72,19.52-.85,6.9-1.45,13.83-2,20.76-1.29,16.83-1.77,33.72-2,50.58-.28,25.9-.45,51.8.23,77.71.52,20.07,1.38,40.1,2.92,60.12,1.33,17.13,6.59,23.57,23.49,26.66.67.12,1.35.24,2,.32,18.81,2.16,37.68,3.68,56.57,4.69,23.57,1.26,47.16,2.29,70.76,2.77,24.87.5,49.76.3,74.64.32,31,0,62.07-.45,93.08-1.69,5.35-.22,10.71-.35,16.06-.71,15.47-1.05,30.94-2.11,46.39-3.33,9.2-.72,18.43-1.27,27.48-3.2,11.77-2.52,17.13-8.49,18.61-20.53,3.27-26.42,3.52-53,3.95-79.56C619.2,311.17,619.34,286.39,618.23,262.2Z" transform="translate(-126.14 -34.68)"/><path d="M400.67,419.92c-59.12,1-112.65-47.82-111.86-112.76.75-62.06,52.32-110.07,112.22-109.9,59.13.17,110.91,47.63,111.51,110.25C513.16,372.09,459.92,420.91,400.67,419.92Z" transform="translate(-126.14 -34.68)"/></svg>
